<svg width="24" height="24" viewBox="0 0 24 24" fill="none" xmlns="http://www.w3.org/2000/svg">
  <rect width="24" height="24" rx="4" fill="#1A5F7A"/>
  <path d="M19 12H17C17 9.24 14.76 7 12 7V5C15.86 5 19 8.14 19 12ZM15 12H13C13 10.35 11.65 9 10 9V7C12.76 7 15 9.24 15 12ZM20 15V18C20 18.55 19.55 19 19 19H17.5C17.5 19.55 17.05 20 16.5 20H14.5C13.95 20 13.5 19.55 13.5 19H5.5C5.5 19.55 5.05 20 4.5 20H2.5C1.95 20 1.5 19.55 1.5 19H0V15C0 13.9 0.9 13 2 13H18C19.1 13 20 13.9 20 15ZM2.5 16.5C2.5 15.95 2.05 15.5 1.5 15.5C0.95 15.5 0.5 15.95 0.5 16.5C0.5 17.05 0.95 17.5 1.5 17.5C2.05 17.5 2.5 17.05 2.5 16.5ZM18.5 16.5C18.5 15.95 18.05 15.5 17.5 15.5C16.95 15.5 16.5 15.95 16.5 16.5C16.5 17.05 16.95 17.5 17.5 17.5C18.05 17.5 18.5 17.05 18.5 16.5Z" fill="white"/>
</svg>